# Blender v2.79 (sub 0) OBJ File: 'AstroBoy.blend'
# www.blender.org
mtllib GunMesh.mtl
o Circle
v -0.508622 0.717337 0.382193
v -0.254311 1.157816 0.382192
v 0.254311 1.157816 0.382192
v 0.508622 0.717337 0.382192
v 0.183265 0.276858 0.382193
v -0.183264 0.276858 0.382193
v -0.366529 0.717337 -0.266099
v -0.183265 1.034761 -0.266099
v 0.183265 1.034761 -0.266099
v 0.366529 0.717337 -0.266099
v 0.183265 0.399914 -0.266099
v -0.183265 0.399914 -0.266099
v -0.000000 0.717337 -0.838055
v -0.155988 0.717337 0.719626
v 0.183265 -0.276858 -0.382192
v -0.183265 -0.276858 -0.382192
v 0.183265 -0.399914 0.266099
v -0.183264 -0.399914 0.266099
v -0.077994 0.852427 0.719626
v 0.077994 0.852427 0.719626
v 0.155988 0.717337 0.719626
v 0.077994 0.582247 0.719626
v -0.077994 0.582247 0.719626
v -0.155988 0.717337 1.133633
v -0.077994 0.852427 1.133633
v 0.077994 0.852427 1.133633
v 0.155988 0.717337 1.133633
v 0.077994 0.582247 1.133633
v -0.077994 0.582247 1.133633
v -0.372068 0.717337 1.305853
v -0.186034 1.039557 1.305853
v 0.186034 1.039557 1.305853
v 0.372068 0.717337 1.305853
v 0.186034 0.395117 1.305853
v -0.186034 0.395117 1.305853
v 0.411957 0.717337 0.550909
v 0.205979 0.360572 0.550909
v -0.205979 1.074103 0.550909
v 0.205979 1.074103 0.550909
v -0.205979 0.360572 0.550909
v -0.411957 0.717337 0.550909
vt 0.342268 0.171139
vt 0.445247 0.171139
vt 0.404302 0.371870
vt 0.325085 0.371870
vt 0.187422 0.171139
vt 0.261234 0.171139
vt 0.261234 0.371870
vt 0.201452 0.371870
vt 0.832416 0.496008
vt 0.743025 0.496008
vt 0.743025 0.328543
vt 0.832416 0.328543
vt 0.094067 0.171139
vt 0.119479 0.371870
vt 0.000145 0.171139
vt 0.038900 0.371870
vt 0.483670 0.371870
vt 0.261234 0.483117
vt 0.743025 0.167610
vt 0.832416 0.167610
vt 0.743025 0.000145
vt 0.832416 0.000145
vt 0.575585 0.331506
vt 0.575585 0.170574
vt 0.999855 0.170574
vt 0.999855 0.331506
vt 0.418650 0.101812
vt 0.336174 0.101812
vt 0.317899 0.048679
vt 0.367065 0.048679
vt 0.261234 0.101812
vt 0.193338 0.101812
vt 0.216458 0.048679
vt 0.261234 0.048679
vt 0.505057 0.101812
vt 0.398961 0.048679
vt 0.117391 0.101812
vt 0.170730 0.048679
vt 0.046467 0.101812
vt 0.134809 0.048679
vt 0.902264 0.646150
vt 0.864220 0.646137
vt 0.864255 0.545167
vt 0.902299 0.545180
vt 0.788134 0.646111
vt 0.750090 0.646098
vt 0.750125 0.545127
vt 0.788169 0.545141
vt 0.712047 0.646085
vt 0.674004 0.646072
vt 0.674039 0.545101
vt 0.712082 0.545114
vt 0.826177 0.646124
vt 0.826212 0.545154
vt 0.275905 0.607532
vt 0.303393 0.633833
vt 0.279550 0.696864
vt 0.213987 0.634130
vt 0.341405 0.632308
vt 0.366698 0.603890
vt 0.430548 0.625443
vt 0.370220 0.693227
vt 0.275753 0.569489
vt 0.213623 0.543388
vt 0.363803 0.565957
vt 0.423642 0.534964
vt 0.334490 0.541706
vt 0.353726 0.477120
vt 0.135585 0.679815
vt 0.056819 0.634759
vt 0.056455 0.544018
vt 0.134857 0.498333
vt 0.555143 0.171139
vn 0.8219 -0.5516 -0.1424
vn 0.0000 0.9825 -0.1865
vn 0.0000 0.1691 -0.9856
vn 0.8508 0.4912 -0.1865
vn -0.8508 0.4912 -0.1865
vn -0.8219 -0.5516 -0.1424
vn 0.0000 -0.8744 -0.4853
vn 0.7572 0.4372 -0.4853
vn -0.7572 0.4372 -0.4853
vn -0.7572 -0.4372 -0.4853
vn 0.7572 -0.4372 -0.4853
vn 0.0000 0.8744 -0.4853
vn 0.0000 -0.9825 -0.1865
vn 0.0000 -0.1691 0.9856
vn 1.0000 0.0000 -0.0000
vn -1.0000 -0.0000 0.0000
vn 0.5245 -0.3028 0.7957
vn 0.0000 0.6056 0.7957
vn 0.0000 -0.6056 0.7957
vn 0.5245 0.3028 0.7957
vn -0.5245 0.3028 0.7957
vn -0.5245 -0.3028 0.7957
vn 0.0000 -1.0000 0.0000
vn 0.0000 1.0000 0.0000
vn -0.8660 -0.5000 0.0000
vn 0.8660 -0.5000 -0.0000
vn -0.8660 0.5000 0.0000
vn 0.8660 0.5000 -0.0000
vn 0.5865 -0.3386 -0.7358
vn 0.0000 0.6772 -0.7358
vn 0.0000 -0.6772 -0.7358
vn -0.5865 0.3386 -0.7358
vn 0.5865 0.3386 -0.7358
vn -0.5865 -0.3386 -0.7358
vn 0.0000 0.0000 1.0000
vn -0.7925 -0.5282 0.3047
vn -0.7758 0.4479 0.4445
vn 0.7758 0.4479 0.4445
vn 0.0000 -0.8958 0.4445
vn 0.0000 0.8958 0.4445
vn 0.7925 -0.5282 0.3047
usemtl Material
s off
f 4/1/1 5/2/1 11/3/1 10/4/1
f 2/5/2 3/6/2 9/7/2 8/8/2
f 12/9/3 11/10/3 15/11/3 16/12/3
f 3/6/4 4/1/4 10/4/4 9/7/4
f 1/13/5 2/5/5 8/8/5 7/14/5
f 6/15/6 1/13/6 7/14/6 12/16/6
f 11/3/7 12/17/7 13/18/7
f 9/7/8 10/4/8 13/18/8
f 7/14/9 8/8/9 13/18/9
f 12/16/10 7/14/10 13/18/10
f 10/4/11 11/3/11 13/18/11
f 8/8/12 9/7/12 13/18/12
f 17/19/13 18/20/13 16/12/13 15/11/13
f 5/21/14 6/22/14 18/20/14 17/19/14
f 11/23/15 5/24/15 17/19/15 15/11/15
f 6/25/16 12/26/16 16/12/16 18/20/16
f 37/27/17 36/28/17 21/29/17 22/30/17
f 39/31/18 38/32/18 19/33/18 20/34/18
f 40/35/19 37/27/19 22/30/19 23/36/19
f 36/28/20 39/31/20 20/34/20 21/29/20
f 38/32/21 41/37/21 14/38/21 19/33/21
f 41/37/22 40/39/22 23/40/22 14/38/22
f 23/41/23 22/42/23 28/43/23 29/44/23
f 20/45/24 19/46/24 25/47/24 26/48/24
f 14/49/25 23/50/25 29/51/25 24/52/25
f 22/42/26 21/53/26 27/54/26 28/43/26
f 19/46/27 14/49/27 24/52/27 25/47/27
f 21/53/28 20/45/28 26/48/28 27/54/28
f 28/55/29 27/56/29 33/57/29 34/58/29
f 26/59/30 25/60/30 31/61/30 32/62/30
f 29/63/31 28/55/31 34/58/31 35/64/31
f 25/60/32 24/65/32 30/66/32 31/61/32
f 27/56/33 26/59/33 32/62/33 33/57/33
f 24/65/34 29/67/34 35/68/34 30/66/34
f 33/69/35 32/70/35 31/71/35 30/72/35
f 34/58/35 33/69/35 30/72/35 35/64/35
f 1/13/36 6/15/36 40/39/36 41/37/36
f 2/5/37 1/13/37 41/37/37 38/32/37
f 4/1/38 3/6/38 39/31/38 36/28/38
f 6/73/39 5/2/39 37/27/39 40/35/39
f 3/6/40 2/5/40 38/32/40 39/31/40
f 5/2/41 4/1/41 36/28/41 37/27/41
