# Blender v2.79 (sub 0) OBJ File: 'AstroBoy.blend'
# www.blender.org
mtllib JetpackMesh.mtl
o Cylinder
v 0.495925 3.055451 -1.623416
v 0.495925 4.944549 -1.623416
v 0.991849 3.055451 -1.337093
v 0.991849 4.944549 -1.337093
v 0.991849 3.055451 -0.764449
v 0.991849 4.944549 -0.764449
v 0.495925 3.055451 -0.478127
v 0.495925 4.944549 -0.478127
v 0.495925 5.465016 -1.050771
v 0.495925 3.055451 -1.467977
v 0.857235 3.055451 -1.259374
v 0.857235 3.055451 -0.842169
v 0.495925 3.055451 -0.633566
v 0.134614 3.055451 -0.842169
v 0.134614 3.055451 -1.259374
v 0.495925 2.785608 -1.544206
v 0.923251 2.785608 -1.297488
v 0.923251 2.785608 -0.804054
v 0.495925 2.785608 -0.557338
v 0.068598 2.785608 -0.804055
v 0.068598 2.785608 -1.297488
v 0.495925 2.785608 -1.456024
v 0.846884 2.785608 -1.253398
v 0.846884 2.785608 -0.848145
v 0.495925 2.785608 -0.645519
v 0.144965 2.785608 -0.848145
v 0.144965 2.785608 -1.253398
v 0.495925 2.941719 -1.415914
v 0.812147 2.941719 -1.233342
v 0.812147 2.941719 -0.868200
v 0.495925 2.941719 -0.685629
v 0.179702 2.941719 -0.868201
v 0.179702 2.941719 -1.233342
v -0.495925 3.055451 -1.623416
v -0.495925 4.944549 -1.623416
v -0.991849 3.055451 -1.337093
v -0.991849 4.944549 -1.337093
v -0.991849 3.055451 -0.764449
v -0.991849 4.944549 -0.764449
v -0.495925 3.055451 -0.478127
v -0.495925 4.944549 -0.478127
v 0.000000 3.055451 -0.764449
v 0.000000 4.944549 -0.764449
v 0.000000 3.055451 -1.337093
v 0.000000 4.944549 -1.337093
v -0.495925 5.465016 -1.050771
v -0.495925 3.055451 -1.467977
v -0.857235 3.055451 -1.259374
v -0.857235 3.055451 -0.842169
v -0.495925 3.055451 -0.633566
v -0.134614 3.055451 -0.842169
v -0.134614 3.055451 -1.259374
v -0.495925 2.785608 -1.544206
v -0.923251 2.785608 -1.297488
v -0.923251 2.785608 -0.804054
v -0.495925 2.785608 -0.557338
v -0.068598 2.785608 -0.804055
v -0.068598 2.785608 -1.297488
v -0.495925 2.785608 -1.456024
v -0.846884 2.785608 -1.253398
v -0.846884 2.785608 -0.848145
v -0.495925 2.785608 -0.645519
v -0.144965 2.785608 -0.848145
v -0.144965 2.785608 -1.253398
v -0.495925 2.941719 -1.415914
v -0.812147 2.941719 -1.233342
v -0.812147 2.941719 -0.868200
v -0.495925 2.941719 -0.685629
v -0.179702 2.941719 -0.868201
v -0.179702 2.941719 -1.233342
vt 0.186137 0.024515
vt 0.185305 0.329623
vt 0.262941 0.329623
vt 0.262452 0.024515
vt 0.337555 0.329623
vt 0.338387 0.024515
vt 0.413197 0.329623
vt 0.414029 0.024515
vt 0.492127 0.329623
vt 0.492959 0.024515
vt 0.262452 0.418962
vt 0.107853 0.024515
vt 0.107021 0.329623
vt 0.431736 0.467003
vt 0.431736 0.563102
vt 0.409145 0.550059
vt 0.409145 0.480046
vt 0.031135 0.329623
vt 0.717063 0.128148
vt 0.717063 0.229600
vt 0.774312 0.229869
vt 0.774312 0.128143
vt 0.265289 0.563101
vt 0.265289 0.467003
vt 0.287879 0.480046
vt 0.287879 0.550059
vt 0.348512 0.418954
vt 0.348512 0.445039
vt 0.348512 0.611151
vt 0.348512 0.585066
vt 0.863333 0.282413
vt 0.863333 0.264126
vt 0.789183 0.220527
vt 0.717063 0.516460
vt 0.717063 0.604514
vt 0.774312 0.604514
vt 0.774312 0.516460
vt 0.717063 0.327290
vt 0.717063 0.421100
vt 0.774312 0.421869
vt 0.774312 0.327824
vt 0.717063 0.030432
vt 0.774312 0.030163
vt 0.789496 0.136430
vt 0.819242 0.203146
vt 0.819242 0.152653
vt 0.863333 0.075191
vt 0.863333 0.092697
vt 0.956115 0.226051
vt 0.956115 0.123019
vt 0.940785 0.132769
vt 0.940786 0.217734
vt 0.863333 0.127926
vt 0.910318 0.152495
vt 0.910318 0.203180
vt 0.863333 0.225654
vt 0.863333 0.226295
vt 0.819242 0.203785
vt 0.819242 0.152216
vt 0.910318 0.152947
vt 0.910318 0.202472
vt 0.185819 0.024187
vt 0.263764 0.024187
vt 0.263764 0.329177
vt 0.185819 0.329177
vt 0.338618 0.024187
vt 0.338618 0.329177
vt 0.414301 0.024187
vt 0.414301 0.329177
vt 0.493832 0.024187
vt 0.493832 0.329177
vt 0.263764 0.419663
vt 0.109387 0.024187
vt 0.108846 0.329177
vt 0.098842 0.467003
vt 0.121432 0.480046
vt 0.121432 0.550059
vt 0.098842 0.563101
vt 0.030600 0.329177
vt 0.718285 0.129151
vt 0.776096 0.128743
vt 0.776096 0.230468
vt 0.718285 0.230784
vt 0.242698 0.550059
vt 0.242698 0.480046
vt 0.182065 0.418954
vt 0.182065 0.445039
vt 0.182065 0.585065
vt 0.182065 0.611150
vt 0.791329 0.221033
vt 0.865685 0.264164
vt 0.865685 0.282447
vt 0.718285 0.516320
vt 0.776096 0.516237
vt 0.776096 0.604876
vt 0.718285 0.604916
vt 0.718285 0.328816
vt 0.776096 0.328590
vt 0.776096 0.423014
vt 0.718285 0.423161
vt 0.718285 0.031429
vt 0.776096 0.030932
vt 0.791126 0.136936
vt 0.821153 0.153916
vt 0.821153 0.204389
vt 0.865685 0.075249
vt 0.865685 0.092750
vt 0.957974 0.225520
vt 0.942649 0.217302
vt 0.942649 0.132357
vt 0.957974 0.122517
vt 0.912186 0.152260
vt 0.865685 0.127976
vt 0.865685 0.225718
vt 0.912186 0.202942
vt 0.821153 0.205028
vt 0.865685 0.226363
vt 0.821153 0.153476
vt 0.912186 0.202235
vt 0.912186 0.152709
vt 0.000000 0.000000
vt 0.000000 0.000000
vt 0.000000 0.000000
vt 0.000000 0.000000
vt 0.000000 0.000000
vt 0.000000 0.000000
vt 0.000000 0.000000
vt 0.000000 0.000000
vt 0.000000 0.000000
vt 0.000000 0.000000
vt 0.000000 0.000000
vt 0.000000 0.000000
vn 0.5000 0.0000 -0.8660
vn 1.0000 0.0000 0.0000
vn 0.5000 0.0000 0.8660
vn -0.5000 0.0000 0.8660
vn 0.3620 0.6898 0.6270
vn -0.5000 0.0000 -0.8660
vn 0.0000 -1.0000 -0.0000
vn -0.3620 0.6898 -0.6270
vn -0.3620 0.6898 0.6270
vn 0.7240 0.6898 0.0000
vn -0.7240 0.6898 0.0000
vn 0.3620 0.6898 -0.6270
vn -0.9714 0.2376 0.0000
vn 0.4857 0.2376 0.8412
vn 0.4857 0.2376 -0.8412
vn -0.4857 0.2376 -0.8412
vn -0.4857 0.2376 0.8412
vn 0.9714 0.2376 0.0000
vn 0.9761 -0.2172 0.0000
vn -0.4881 -0.2172 -0.8454
vn -0.4881 -0.2172 0.8454
vn 0.4881 -0.2172 0.8454
vn 0.4881 -0.2172 -0.8454
vn -0.9761 -0.2172 -0.0000
vn -1.0000 0.0000 0.0000
usemtl JetpackTex
s off
f 1/1/1 2/2/1 4/3/1 3/4/1
f 3/4/2 4/3/2 6/5/2 5/6/2
f 5/6/3 6/5/3 8/7/3 7/8/3
f 7/8/4 8/7/4 43/9/4 42/10/4
f 8/7/5 6/5/5 9/11/5
f 44/12/6 45/13/6 2/2/6 1/1/6
f 3/14/7 5/15/7 12/16/7 11/17/7
f 2/2/8 45/13/8 9/11/8
f 43/9/9 8/7/9 9/11/9
f 6/5/10 4/3/10 9/11/10
f 45/13/11 43/18/11 9/11/11
f 4/3/12 2/2/12 9/11/12
f 14/19/13 15/20/13 21/21/13 20/22/13
f 42/23/7 44/24/7 15/25/7 14/26/7
f 1/27/7 3/14/7 11/17/7 10/28/7
f 5/15/7 7/29/7 13/30/7 12/16/7
f 44/24/7 1/27/7 10/28/7 15/25/7
f 7/29/7 42/23/7 14/26/7 13/30/7
f 21/21/7 16/31/7 22/32/7 27/33/7
f 12/34/14 13/35/14 19/36/14 18/37/14
f 10/38/15 11/39/15 17/40/15 16/41/15
f 15/20/16 10/38/16 16/41/16 21/21/16
f 13/42/17 14/19/17 20/22/17 19/43/17
f 11/39/18 12/34/18 18/37/18 17/40/18
f 26/44/19 27/33/19 33/45/19 32/46/19
f 19/47/7 20/22/7 26/44/7 25/48/7
f 17/49/7 18/50/7 24/51/7 23/52/7
f 20/22/7 21/21/7 27/33/7 26/44/7
f 18/50/7 19/47/7 25/48/7 24/51/7
f 16/31/7 17/49/7 23/52/7 22/32/7
f 24/51/20 25/48/20 31/53/20 30/54/20
f 22/32/21 23/52/21 29/55/21 28/56/21
f 27/33/22 22/32/22 28/57/22 33/58/22
f 25/48/23 26/44/23 32/59/23 31/53/23
f 23/52/24 24/51/24 30/60/24 29/61/24
f 34/62/6 36/63/6 37/64/6 35/65/6
f 36/63/25 38/66/25 39/67/25 37/64/25
f 38/66/4 40/68/4 41/69/4 39/67/4
f 40/68/3 42/70/3 43/71/3 41/69/3
f 41/69/9 46/72/9 39/67/9
f 44/73/1 34/62/1 35/65/1 45/74/1
f 36/75/7 48/76/7 49/77/7 38/78/7
f 35/65/12 46/72/12 45/74/12
f 43/71/5 46/72/5 41/69/5
f 39/67/11 46/72/11 37/64/11
f 45/74/10 46/72/10 43/79/10
f 37/64/8 46/72/8 35/65/8
f 51/80/18 57/81/18 58/82/18 52/83/18
f 42/23/7 51/84/7 52/85/7 44/24/7
f 34/86/7 47/87/7 48/76/7 36/75/7
f 38/78/7 49/77/7 50/88/7 40/89/7
f 44/24/7 52/85/7 47/87/7 34/86/7
f 40/89/7 50/88/7 51/84/7 42/23/7
f 58/82/7 64/90/7 59/91/7 53/92/7
f 49/93/17 55/94/17 56/95/17 50/96/17
f 47/97/16 53/98/16 54/99/16 48/100/16
f 52/83/15 58/82/15 53/98/15 47/97/15
f 50/101/14 56/102/14 57/81/14 51/80/14
f 48/100/13 54/99/13 55/94/13 49/93/13
f 63/103/24 69/104/24 70/105/24 64/90/24
f 56/106/7 62/107/7 63/103/7 57/81/7
f 54/108/7 60/109/7 61/110/7 55/111/7
f 57/81/7 63/103/7 64/90/7 58/82/7
f 55/111/7 61/110/7 62/107/7 56/106/7
f 53/92/7 59/91/7 60/109/7 54/108/7
f 61/110/23 67/112/23 68/113/23 62/107/23
f 59/91/22 65/114/22 66/115/22 60/109/22
f 64/90/21 70/116/21 65/117/21 59/91/21
f 62/107/20 68/113/20 69/118/20 63/103/20
f 60/109/19 66/119/19 67/120/19 61/110/19
usemtl JetpackThrust
f 31/121/7 32/122/7 33/123/7 28/124/7
f 28/124/7 29/125/7 30/126/7 31/121/7
f 68/127/7 65/128/7 70/129/7 69/130/7
f 65/128/7 68/127/7 67/131/7 66/132/7
