# Blender v2.79 (sub 0) OBJ File: 'BoyBlend.blend'
# www.blender.org
mtllib BoyMesh.mtl
o Sphere
v 0.707107 0.275159 -0.000000
v 0.705422 -1.011241 0.000000
v 0.498808 -0.304134 -0.000000
v 0.000000 -0.011241 0.000000
v 0.353553 0.275159 -0.612373
v 0.352711 -1.011241 -0.610913
v 0.249404 -0.304134 -0.431981
v -0.353554 0.275159 -0.612372
v -0.352711 -1.011241 -0.610913
v -0.249404 -0.304134 -0.431981
v -0.000000 0.007483 0.000000
v -0.707107 0.275159 0.000000
v -0.705422 -1.011241 0.000000
v -0.498808 -0.304134 0.000000
v -0.353553 0.275159 0.612373
v -0.352711 -1.011241 0.610913
v -0.249404 -0.304134 0.431981
v 0.353554 0.275159 0.612372
v 0.352711 -1.011241 0.610913
v 0.249404 -0.304134 0.431981
v 1.000000 0.921387 0.000000
v 0.500000 0.921387 -0.866026
v -0.500000 0.921387 -0.866025
v -1.000000 0.921387 0.000000
v -0.500000 0.921387 0.866026
v 0.500000 0.921387 0.866025
v -0.180244 -1.296431 0.105999
v -0.148396 -0.990192 -0.137847
v -0.180244 -1.296431 -0.105999
v -0.424090 -0.990192 0.137847
v -0.392242 -1.296431 0.105999
v -0.148396 -0.990192 0.137847
v -0.392242 -1.296431 -0.105999
v -0.424090 -0.990192 -0.137847
v 0.180244 -1.296431 0.105999
v 0.148396 -0.990192 -0.137847
v 0.180244 -1.296431 -0.105999
v 0.424090 -0.990192 0.137847
v 0.392242 -1.296431 0.105999
v 0.148396 -0.990192 0.137847
v 0.392242 -1.296431 -0.105999
v 0.424090 -0.990192 -0.137847
v 0.148396 -0.850940 -0.137847
v 0.148396 -0.850940 0.137847
v -0.148396 -0.850940 -0.137847
v -0.148396 -0.850940 0.137847
v -0.424090 -0.850940 -0.137847
v -0.424090 -0.850940 0.137847
v 0.424090 -0.850940 -0.137847
v 0.424090 -0.850940 0.137847
vt 0.752473 0.593728
vt 0.841986 0.725286
vt 0.951673 0.610962
vt 0.830418 0.544947
vt 0.159955 0.152804
vt 0.282183 0.211994
vt 0.163619 0.278219
vt 0.755021 0.468887
vt 0.025956 0.130723
vt 0.031137 0.308086
vt 0.983918 0.464634
vt 0.857348 0.477015
vt 0.299130 0.287165
vt 0.214122 0.393075
vt 0.102560 0.470516
vt 0.930093 0.332525
vt 0.838804 0.412242
vt 0.343070 0.350466
vt 0.304068 0.480551
vt 0.229763 0.594226
vt 0.814966 0.258104
vt 0.785788 0.372468
vt 0.407570 0.392626
vt 0.420285 0.527836
vt 0.394119 0.661098
vt 0.679893 0.258529
vt 0.715979 0.371911
vt 0.483183 0.407473
vt 0.545754 0.528007
vt 0.571558 0.661339
vt 0.662099 0.481037
vt 0.736095 0.594914
vt 0.570600 0.314340
vt 0.644791 0.422401
vt 0.558836 0.392832
vt 0.173714 0.765989
vt 0.228346 0.760338
vt 0.228346 0.809256
vt 0.173714 0.803605
vt 0.136097 0.803605
vt 0.081465 0.809256
vt 0.081465 0.760338
vt 0.136097 0.765989
vt 0.179365 0.858237
vt 0.130446 0.858237
vt 0.660069 0.815126
vt 0.305190 0.814644
vt 0.130446 0.711357
vt 0.179365 0.711357
vt 0.571140 0.968672
vt 0.393701 0.968431
vt 0.616692 0.144441
vt 0.880590 0.143630
vt 0.814264 0.029562
vt 0.682315 0.029967
vt 0.130689 0.858140
vt 0.179608 0.858140
vt 0.179608 0.858140
vt 0.130689 0.858140
vt 0.136340 0.765891
vt 0.136340 0.803508
vt 0.081708 0.809159
vt 0.081708 0.760240
vt 0.173956 0.803508
vt 0.173956 0.765891
vt 0.228588 0.760240
vt 0.228588 0.809159
vt 0.130689 0.711259
vt 0.179607 0.711259
vt 0.081708 0.809159
vt 0.081708 0.760240
vt 0.130446 0.858237
vt 0.179365 0.858237
vt 0.179365 0.907156
vt 0.130446 0.907156
vt 0.179608 0.907059
vt 0.130689 0.907059
vt 0.228588 0.760240
vt 0.228588 0.809159
vt 0.081465 0.809256
vt 0.081465 0.760338
vt 0.228346 0.760338
vt 0.228346 0.809256
vt 0.130689 0.711259
vt 0.179607 0.711259
vt 0.130446 0.711357
vt 0.179365 0.711357
vn 0.8396 0.2453 -0.4847
vn 0.3469 -0.9163 -0.2003
vn 0.4860 0.8277 -0.2806
vn 0.8061 -0.3654 -0.4654
vn -0.0000 0.2453 -0.9694
vn -0.0000 -0.9163 -0.4005
vn 0.0000 0.8277 -0.5612
vn -0.0000 -0.3654 -0.9309
vn -0.8396 0.2453 -0.4847
vn -0.3469 -0.9163 -0.2003
vn -0.4860 0.8277 -0.2806
vn -0.8061 -0.3654 -0.4654
vn -0.8396 0.2453 0.4847
vn -0.3469 -0.9163 0.2003
vn -0.4860 0.8277 0.2806
vn -0.8061 -0.3654 0.4654
vn 0.0000 0.2453 0.9694
vn 0.0000 -0.9163 0.4005
vn 0.0000 0.8277 0.5612
vn 0.0000 -0.3654 0.9309
vn 0.8061 -0.3654 0.4654
vn 0.8396 0.2453 0.4847
vn 0.3469 -0.9163 0.2003
vn 0.4860 0.8277 0.2806
vn 0.0000 -0.1034 0.9946
vn 0.0000 -0.1034 -0.9946
vn -0.9946 -0.1034 0.0000
vn 0.0000 1.0000 -0.0000
vn 0.9946 -0.1034 0.0000
vn -0.0000 -1.0000 -0.0000
vn 1.0000 0.0000 0.0000
vn 0.0000 0.0000 1.0000
vn -1.0000 0.0000 0.0000
vn 0.0000 0.0000 -1.0000
usemtl None
s off
f 3/1/1 2/2/1 6/3/1 7/4/1
f 1/5/2 11/6/2 5/7/2
f 4/8/3 3/1/3 7/4/3
f 21/9/4 1/5/4 5/7/4 22/10/4
f 7/4/5 6/3/5 9/11/5 10/12/5
f 5/7/6 11/13/6 8/14/6
f 4/8/7 7/4/7 10/12/7
f 22/10/8 5/7/8 8/14/8 23/15/8
f 10/12/9 9/11/9 13/16/9 14/17/9
f 8/14/10 11/18/10 12/19/10
f 4/8/11 10/12/11 14/17/11
f 23/15/12 8/14/12 12/19/12 24/20/12
f 14/17/13 13/16/13 16/21/13 17/22/13
f 12/19/14 11/23/14 15/24/14
f 4/8/15 14/17/15 17/22/15
f 24/20/16 12/19/16 15/24/16 25/25/16
f 17/22/17 16/21/17 19/26/17 20/27/17
f 15/24/18 11/28/18 18/29/18
f 4/8/19 17/22/19 20/27/19
f 25/25/20 15/24/20 18/29/20 26/30/20
f 26/30/21 18/29/21 1/31/21 21/32/21
f 20/27/22 19/26/22 2/33/22 3/34/22
f 18/29/23 11/35/23 1/31/23
f 4/8/24 20/27/24 3/34/24
f 27/36/25 32/37/25 30/38/25 31/39/25
f 33/40/26 34/41/26 28/42/26 29/43/26
f 31/39/27 30/44/27 34/45/27 33/40/27
f 26/30/28 21/46/28 24/47/28 25/25/28
f 29/43/29 28/48/29 32/49/29 27/36/29
f 21/46/28 22/50/28 23/51/28 24/47/28
f 2/52/30 13/53/30 9/54/30 6/55/30
f 16/21/30 13/53/30 2/52/30 19/26/30
f 31/39/30 33/40/30 29/43/30 27/36/30
f 38/56/31 42/57/31 49/58/31 50/59/31
f 35/60/25 39/61/25 38/62/25 40/63/25
f 41/64/26 37/65/26 36/66/26 42/67/26
f 39/61/29 41/64/29 42/57/29 38/56/29
f 37/65/27 35/60/27 40/68/27 36/69/27
f 39/61/30 35/60/30 37/65/30 41/64/30
f 40/63/32 38/62/32 50/70/32 44/71/32
f 47/72/28 48/73/28 46/74/28 45/75/28
f 49/58/28 43/76/28 44/77/28 50/59/28
f 34/45/33 30/44/33 48/73/33 47/72/33
f 42/67/34 36/66/34 43/78/34 49/79/34
f 28/42/34 34/41/34 47/80/34 45/81/34
f 30/38/32 32/37/32 46/82/32 48/83/32
f 36/69/33 40/68/33 44/84/33 43/85/33
f 32/49/31 28/48/31 45/86/31 46/87/31
